<svg xmlns="http://www.w3.org/2000/svg" class="icon icon-tabler icon-tabler-app-window-filled" width="22" height="22" viewBox="1 1 22 22" stroke-width="0" stroke="gray" fill="gray" stroke-linecap="round" stroke-linejoin="round">
  <path stroke="none" d="M0 0h24v24H0z" fill="none"/>
  <path d="M19 4a3 3 0 0 1 3 3v10a3 3 0 0 1 -3 3h-14a3 3 0 0 1 -3 -3v-10a3 3 0 0 1 3 -3zm-12.99 3l-.127 .007a1 1 0 0 0 .117 1.993l.127 -.007a1 1 0 0 0 -.117 -1.993zm3 0l-.127 .007a1 1 0 0 0 .117 1.993l.127 -.007a1 1 0 0 0 -.117 -1.993z" stroke-width="0" fill="gray" />
</svg>


